<svg width="56" height="50" viewBox="0 0 130 122" fill="none" xmlns="http://www.w3.org/2000/svg"><ellipse cx="65" cy="61" rx="65" ry="61" fill="#0D1117"/><rect x="21" y="25" width="88" height="68" rx="11" fill="#161B22"/><path d="M67.4453 75H62.7334L44.8379 47.6074V75H40.126V39.4531H44.8379L62.7822 66.9678V39.4531H67.4453V75ZM86.0244 75.4883C82.4437 75.4883 79.5303 74.3164 77.2842 71.9727C75.0381 69.6126 73.915 66.4632 73.915 62.5244V61.6943C73.915 59.0739 74.4115 56.7383 75.4043 54.6875C76.4134 52.6204 77.8132 51.0091 79.6035 49.8535C81.4102 48.6816 83.3633 48.0957 85.4629 48.0957C88.8971 48.0957 91.5664 49.2269 93.4707 51.4893C95.375 53.7516 96.3271 56.9906 96.3271 61.2061V63.0859H78.4316C78.4967 65.6901 79.2536 67.7979 80.7021 69.4092C82.167 71.0042 84.0225 71.8018 86.2686 71.8018C87.8636 71.8018 89.2145 71.4762 90.3213 70.8252C91.4281 70.1742 92.3965 69.3115 93.2266 68.2373L95.9854 70.3857C93.7718 73.7874 90.4515 75.4883 86.0244 75.4883ZM85.4629 51.8066C83.64 51.8066 82.11 52.474 80.873 53.8086C79.6361 55.127 78.8711 56.9824 78.5781 59.375H91.8105V59.0332C91.6803 56.7383 91.0618 54.9642 89.9551 53.7109C88.8483 52.4414 87.3509 51.8066 85.4629 51.8066Z" fill="white"/></svg>
