<svg width="38" height="33" viewBox="0 0 38 33" fill="none" xmlns="http://www.w3.org/2000/svg">
<rect width="38" height="33" rx="11" fill="#0B0E11"/>
<path d="M12.48 22.075C12.11 22.075 11.845 21.995 11.685 21.835C11.525 21.665 11.445 21.35 11.445 20.89C11.445 20.58 11.475 20.205 11.535 19.765C11.595 19.325 11.7 18.66 11.85 17.77C11.87 17.65 11.95 17.165 12.09 16.315C12.23 15.455 12.355 14.555 12.465 13.615C12.565 12.815 12.615 12.215 12.615 11.815C12.615 11.365 12.45 11.14 12.12 11.14C11.87 11.14 11.555 11.275 11.175 11.545C10.805 11.805 10.405 12.225 9.975 12.805C9.835 12.995 9.68 13.09 9.51 13.09C9.37 13.09 9.245 13.025 9.135 12.895C9.035 12.755 8.985 12.6 8.985 12.43C8.985 12.26 9.015 12.1 9.075 11.95C9.135 11.79 9.245 11.6 9.405 11.38C9.895 10.71 10.44 10.195 11.04 9.835C11.64 9.465 12.27 9.28 12.93 9.28C13.48 9.28 13.89 9.45 14.16 9.79C14.44 10.13 14.58 10.625 14.58 11.275C14.58 11.855 14.5 12.695 14.34 13.795C14.84 12.315 15.475 11.195 16.245 10.435C17.015 9.665 17.92 9.28 18.96 9.28C19.78 9.28 20.395 9.515 20.805 9.985C21.225 10.445 21.435 11.065 21.435 11.845C21.435 12.285 21.37 12.82 21.24 13.45L20.325 17.74C20.225 18.24 20.175 18.67 20.175 19.03C20.175 19.45 20.27 19.765 20.46 19.975C20.66 20.185 20.935 20.29 21.285 20.29C21.615 20.29 21.935 20.18 22.245 19.96C22.565 19.74 22.94 19.375 23.37 18.865C23.49 18.725 23.625 18.655 23.775 18.655C23.905 18.655 24.005 18.715 24.075 18.835C24.155 18.955 24.195 19.12 24.195 19.33C24.195 19.72 24.1 20.03 23.91 20.26C23.39 20.89 22.875 21.35 22.365 21.64C21.855 21.93 21.32 22.075 20.76 22.075C19.91 22.075 19.245 21.825 18.765 21.325C18.285 20.815 18.045 20.135 18.045 19.285C18.045 18.955 18.07 18.595 18.12 18.205C18.18 17.815 18.275 17.32 18.405 16.72L19.005 13.975C19.025 13.885 19.06 13.725 19.11 13.495C19.16 13.265 19.2 13.05 19.23 12.85C19.26 12.64 19.275 12.435 19.275 12.235C19.275 11.915 19.185 11.66 19.005 11.47C18.825 11.28 18.57 11.185 18.24 11.185C17.64 11.185 17.04 11.505 16.44 12.145C15.84 12.785 15.285 13.82 14.775 15.25C14.265 16.67 13.865 18.49 13.575 20.71C13.505 21.22 13.4 21.575 13.26 21.775C13.13 21.975 12.87 22.075 12.48 22.075ZM28.3468 19.105C28.4768 19.105 28.5768 19.165 28.6468 19.285C28.7268 19.405 28.7668 19.57 28.7668 19.78C28.7668 20.14 28.6818 20.45 28.5118 20.71C28.2318 21.14 27.8618 21.475 27.4018 21.715C26.9518 21.955 26.4118 22.075 25.7818 22.075C24.8218 22.075 24.0768 21.79 23.5468 21.22C23.0168 20.64 22.7518 19.86 22.7518 18.88C22.7518 18.19 22.8968 17.55 23.1868 16.96C23.4768 16.36 23.8768 15.885 24.3868 15.535C24.9068 15.185 25.4918 15.01 26.1418 15.01C26.7218 15.01 27.1868 15.185 27.5368 15.535C27.8868 15.875 28.0618 16.34 28.0618 16.93C28.0618 17.62 27.8118 18.215 27.3118 18.715C26.8218 19.205 25.9818 19.595 24.7918 19.885C25.0318 20.345 25.4368 20.575 26.0068 20.575C26.4168 20.575 26.7518 20.48 27.0118 20.29C27.2818 20.1 27.5918 19.78 27.9418 19.33C28.0618 19.18 28.1968 19.105 28.3468 19.105ZM25.8868 16.48C25.5168 16.48 25.2018 16.695 24.9418 17.125C24.6918 17.555 24.5668 18.075 24.5668 18.685V18.715C25.1568 18.575 25.6218 18.365 25.9618 18.085C26.3018 17.805 26.4718 17.48 26.4718 17.11C26.4718 16.92 26.4168 16.77 26.3068 16.66C26.2068 16.54 26.0668 16.48 25.8868 16.48Z" fill="white"/>
</svg>
