<svg width="56" height="50" viewBox="0 0 61 59" fill="none" xmlns="http://www.w3.org/2000/svg"><ellipse cx="30.5" cy="29.5" rx="30.5" ry="29.5" fill="#121212" /><path d="M26.2529 34.4336H17.3174L15.3105 40H12.4102L20.5547 18.6719H23.0156L31.1748 40H28.2891L26.2529 34.4336ZM18.167 32.1191H25.418L21.7852 22.1436 L18.167 32.1191ZM41.2822 26.582C40.8721 26.5137 40.4277 26.4795 39.9492 26.4795C38.1719 26.4795 36.9658 27.2363 36.3311 28.75V40H33.6211V24.1504H36.2578L36.3018 25.9814C37.1904 24.5654 38.4502 23.8574 40.0811  23.8574C40.6084 23.8574 41.0088 23.9258 41.2822 24.0625V26.582Z" fill="white"/></svg>